# xmcd
#
# Track frame offsets: 
#        150
#        17262
#        37116
#        58212
#        77999
#        116268
#        131903
#        149903
#        159815
#        169279
#        187245
#        211952
#
# Disc length: 3168 seconds
#
# Revision: 0
# Processed by: cddbd v1.5.2PL0 Copyright (c) Steve Scherf et al.
# Submitted via: ExactAudioCopy v1.0b4
#
DISCID=b10c5e0c
DTITLE=Mojo Watson - Geechy Woman
DYEAR=2011
DGENRE=Blues, Electric Blues, Chicago Blues
TTITLE0=Ladies Man
TTITLE1=Geechy Woman
TTITLE2=Janvier a Paris (January, In Paris)
TTITLE3=Sunnyland
TTITLE4=Sweet Sixteen
TTITLE5=Hello Central No. 209
TTITLE6=Killing Floor
TTITLE7=Please Tell Me Why
TTITLE8=Gypsies, Grifters, and Groupies
TTITLE9=My Christmas Present To My Baby
TTITLE10=Dolly Dagger
TTITLE11=Karaoke Larrry
EXTD=
EXTT0=
EXTT1=
EXTT2=
EXTT3=
EXTT4=
EXTT5=
EXTT6=
EXTT7=
EXTT8=
EXTT9=
EXTT10=
EXTT11=
PLAYORDER=
